<mxfile host="app.diagrams.net" modified="2024-02-26T02:37:59.205Z" agent="Mozilla/5.0 (Windows NT 10.0; Win64; x64) AppleWebKit/537.36 (KHTML, like Gecko) Chrome/122.0.0.0 Safari/537.36" etag="zcpTTSLC673kytd9rXrU" version="23.1.1" type="github">
  <diagram id="R2lEEEUBdFMjLlhIrx00" name="Page-1">
    <mxGraphModel dx="800" dy="474" grid="0" gridSize="10" guides="1" tooltips="1" connect="1" arrows="1" fold="1" page="1" pageScale="1" pageWidth="850" pageHeight="1100" math="0" shadow="0" extFonts="Permanent Marker^https://fonts.googleapis.com/css?family=Permanent+Marker">
      <root>
        <mxCell id="0" />
        <mxCell id="1" parent="0" />
        <mxCell id="AVYWx6dRsydTbOFGkszw-3" value="" style="edgeStyle=orthogonalEdgeStyle;rounded=0;orthogonalLoop=1;jettySize=auto;html=1;endArrow=none;endFill=0;fontStyle=1;fontSize=14;" parent="1" source="AVYWx6dRsydTbOFGkszw-1" target="AVYWx6dRsydTbOFGkszw-2" edge="1">
          <mxGeometry relative="1" as="geometry" />
        </mxCell>
        <mxCell id="zZYmXjJWFtk9v0oxD4zD-30" value="1" style="edgeLabel;html=1;align=center;verticalAlign=middle;resizable=0;points=[];" vertex="1" connectable="0" parent="AVYWx6dRsydTbOFGkszw-3">
          <mxGeometry x="-0.6786" relative="1" as="geometry">
            <mxPoint x="1" y="-1" as="offset" />
          </mxGeometry>
        </mxCell>
        <mxCell id="zZYmXjJWFtk9v0oxD4zD-31" value="n" style="edgeLabel;html=1;align=center;verticalAlign=middle;resizable=0;points=[];" vertex="1" connectable="0" parent="AVYWx6dRsydTbOFGkszw-3">
          <mxGeometry x="0.6964" y="-2" relative="1" as="geometry">
            <mxPoint x="-3" y="-1" as="offset" />
          </mxGeometry>
        </mxCell>
        <mxCell id="AVYWx6dRsydTbOFGkszw-1" value="类型" style="rounded=0;whiteSpace=wrap;html=1;fontStyle=1;fontSize=14;" parent="1" vertex="1">
          <mxGeometry x="235" y="163" width="120" height="60" as="geometry" />
        </mxCell>
        <mxCell id="zZYmXjJWFtk9v0oxD4zD-21" value="" style="edgeStyle=orthogonalEdgeStyle;rounded=0;orthogonalLoop=1;jettySize=auto;html=1;endArrow=none;endFill=0;fontStyle=1;fontSize=14;" edge="1" parent="1" source="AVYWx6dRsydTbOFGkszw-2" target="zZYmXjJWFtk9v0oxD4zD-15">
          <mxGeometry relative="1" as="geometry" />
        </mxCell>
        <mxCell id="AVYWx6dRsydTbOFGkszw-2" value="物品扩展属性" style="rounded=0;whiteSpace=wrap;html=1;fontStyle=1;fontSize=14;" parent="1" vertex="1">
          <mxGeometry x="403.5" y="163" width="120" height="60" as="geometry" />
        </mxCell>
        <mxCell id="AVYWx6dRsydTbOFGkszw-7" value="" style="edgeStyle=orthogonalEdgeStyle;rounded=0;orthogonalLoop=1;jettySize=auto;html=1;endArrow=none;endFill=0;fontStyle=1;fontSize=14;" parent="1" source="AVYWx6dRsydTbOFGkszw-4" target="AVYWx6dRsydTbOFGkszw-6" edge="1">
          <mxGeometry relative="1" as="geometry" />
        </mxCell>
        <mxCell id="zZYmXjJWFtk9v0oxD4zD-32" value="n" style="edgeLabel;html=1;align=center;verticalAlign=middle;resizable=0;points=[];" vertex="1" connectable="0" parent="AVYWx6dRsydTbOFGkszw-7">
          <mxGeometry x="0.6964" relative="1" as="geometry">
            <mxPoint x="-4" y="1" as="offset" />
          </mxGeometry>
        </mxCell>
        <mxCell id="zZYmXjJWFtk9v0oxD4zD-33" value="1" style="edgeLabel;html=1;align=center;verticalAlign=middle;resizable=0;points=[];" vertex="1" connectable="0" parent="AVYWx6dRsydTbOFGkszw-7">
          <mxGeometry x="-0.5786" y="-2" relative="1" as="geometry">
            <mxPoint as="offset" />
          </mxGeometry>
        </mxCell>
        <mxCell id="zZYmXjJWFtk9v0oxD4zD-20" value="" style="edgeStyle=orthogonalEdgeStyle;rounded=0;orthogonalLoop=1;jettySize=auto;html=1;entryX=1;entryY=0.5;entryDx=0;entryDy=0;endArrow=none;endFill=0;fontStyle=1;fontSize=14;" edge="1" parent="1" source="AVYWx6dRsydTbOFGkszw-4" target="zZYmXjJWFtk9v0oxD4zD-17">
          <mxGeometry relative="1" as="geometry" />
        </mxCell>
        <mxCell id="AVYWx6dRsydTbOFGkszw-4" value="物品" style="rounded=0;whiteSpace=wrap;html=1;fontStyle=1;fontSize=14;" parent="1" vertex="1">
          <mxGeometry x="235" y="276.5" width="120" height="60" as="geometry" />
        </mxCell>
        <mxCell id="zZYmXjJWFtk9v0oxD4zD-18" value="" style="edgeStyle=orthogonalEdgeStyle;rounded=0;orthogonalLoop=1;jettySize=auto;html=1;endArrow=none;endFill=0;fontStyle=1;fontSize=14;" edge="1" parent="1" source="AVYWx6dRsydTbOFGkszw-6" target="zZYmXjJWFtk9v0oxD4zD-16">
          <mxGeometry relative="1" as="geometry" />
        </mxCell>
        <mxCell id="AVYWx6dRsydTbOFGkszw-6" value="扩展属性值" style="rounded=0;whiteSpace=wrap;html=1;fontStyle=1;fontSize=14;" parent="1" vertex="1">
          <mxGeometry x="403.5" y="276.5" width="120" height="60" as="geometry" />
        </mxCell>
        <mxCell id="zZYmXjJWFtk9v0oxD4zD-15" value="类型标识" style="ellipse;whiteSpace=wrap;html=1;fontStyle=1;fontSize=14;" vertex="1" parent="1">
          <mxGeometry x="409" y="48" width="109" height="71" as="geometry" />
        </mxCell>
        <mxCell id="zZYmXjJWFtk9v0oxD4zD-16" value="物品标识" style="ellipse;whiteSpace=wrap;html=1;fontStyle=1;fontSize=14;" vertex="1" parent="1">
          <mxGeometry x="573" y="271" width="109" height="71" as="geometry" />
        </mxCell>
        <mxCell id="zZYmXjJWFtk9v0oxD4zD-17" value="类型标识" style="ellipse;whiteSpace=wrap;html=1;fontStyle=1;fontSize=14;" vertex="1" parent="1">
          <mxGeometry x="78" y="271" width="109" height="71" as="geometry" />
        </mxCell>
        <mxCell id="zZYmXjJWFtk9v0oxD4zD-23" value="" style="edgeStyle=orthogonalEdgeStyle;rounded=0;orthogonalLoop=1;jettySize=auto;html=1;endArrow=none;endFill=0;exitX=0.5;exitY=1;exitDx=0;exitDy=0;" edge="1" parent="1" source="AVYWx6dRsydTbOFGkszw-1" target="AVYWx6dRsydTbOFGkszw-4">
          <mxGeometry relative="1" as="geometry">
            <mxPoint x="295" y="285" as="sourcePoint" />
          </mxGeometry>
        </mxCell>
        <mxCell id="zZYmXjJWFtk9v0oxD4zD-27" value="n" style="edgeLabel;html=1;align=center;verticalAlign=middle;resizable=0;points=[];" vertex="1" connectable="0" parent="zZYmXjJWFtk9v0oxD4zD-23">
          <mxGeometry x="-0.0402" y="-1" relative="1" as="geometry">
            <mxPoint y="12" as="offset" />
          </mxGeometry>
        </mxCell>
        <mxCell id="zZYmXjJWFtk9v0oxD4zD-28" value="1" style="edgeLabel;html=1;align=center;verticalAlign=middle;resizable=0;points=[];" vertex="1" connectable="0" parent="zZYmXjJWFtk9v0oxD4zD-23">
          <mxGeometry x="-0.8009" y="1" relative="1" as="geometry">
            <mxPoint x="-1" y="7" as="offset" />
          </mxGeometry>
        </mxCell>
      </root>
    </mxGraphModel>
  </diagram>
</mxfile>
